<svg width="146" height="28" viewBox="0 0 146 28" fill="none" xmlns="http://www.w3.org/2000/svg">
<path d="M4.83333 24.5C4.83333 25.9728 6.02724 27.1667 7.5 27.1667C8.97276 27.1667 10.1667 25.9728 10.1667 24.5C10.1667 23.0272 8.97276 21.8333 7.5 21.8333C6.02724 21.8333 4.83333 23.0272 4.83333 24.5ZM1 17.5L0.82051 17.0333C0.6656 17.0929 0.550351 17.2255 0.512897 17.3872C0.475443 17.5489 0.520666 17.7186 0.633603 17.8402L1 17.5ZM7.5 15L7.87165 14.6655C7.73306 14.5115 7.51387 14.459 7.32051 14.5333L7.5 15ZM12 20L11.6284 20.3345C11.7174 20.4334 11.8421 20.4927 11.975 20.4994C12.1078 20.506 12.2379 20.4595 12.3363 20.37L12 20ZM17.5 15L17.8363 15.37C18.0256 15.1979 18.0545 14.9106 17.9032 14.7043L17.5 15ZM12 7.5L12.4032 7.20432C12.2753 7.02997 12.0499 6.95755 11.8444 7.02482C11.639 7.09208 11.5 7.28379 11.5 7.5H12ZM12 12.5L11.8892 12.9876C12.0375 13.0213 12.1931 12.9856 12.3119 12.8908C12.4308 12.7959 12.5 12.6521 12.5 12.5H12ZM1 10L0.613021 9.68338C0.503367 9.8174 0.470865 9.99862 0.527108 10.1624C0.583351 10.3262 0.720331 10.4492 0.889189 10.4876L1 10ZM2.83333 4.5C2.83333 5.97276 4.02724 7.16667 5.5 7.16667C6.97276 7.16667 8.16667 5.97276 8.16667 4.5C8.16667 3.02724 6.97276 1.83333 5.5 1.83333C4.02724 1.83333 2.83333 3.02724 2.83333 4.5ZM7.8664 24.1598L1.3664 17.1598L0.633603 17.8402L7.1336 24.8402L7.8664 24.1598ZM1.17949 17.9667L7.67949 15.4667L7.32051 14.5333L0.82051 17.0333L1.17949 17.9667ZM7.12835 15.3345L11.6284 20.3345L12.3716 19.6655L7.87165 14.6655L7.12835 15.3345ZM12.3363 20.37L17.8363 15.37L17.1637 14.63L11.6637 19.63L12.3363 20.37ZM17.9032 14.7043L12.4032 7.20432L11.5968 7.79568L17.0968 15.2957L17.9032 14.7043ZM11.5 7.5V12.5H12.5V7.5H11.5ZM12.1108 12.0124L1.11081 9.51243L0.889189 10.4876L11.8892 12.9876L12.1108 12.0124ZM1.38698 10.3166L5.88698 4.81662L5.11302 4.18338L0.613021 9.68338L1.38698 10.3166Z" fill="#5F51FF"/>
<path d="M31.368 21V7.514H26.088V5.6H38.826V7.514H33.546V21H31.368ZM40.6348 21V9.34H42.6588V12.508L42.4608 11.716C42.7835 10.9093 43.3261 10.2933 44.0888 9.868C44.8515 9.44267 45.7901 9.23 46.9048 9.23V11.276C46.8168 11.2613 46.7288 11.254 46.6408 11.254C46.5675 11.254 46.4941 11.254 46.4208 11.254C45.2915 11.254 44.3968 11.5913 43.7368 12.266C43.0768 12.9407 42.7468 13.916 42.7468 15.192V21H40.6348ZM49.5079 21V9.34H51.6199V21H49.5079ZM50.5639 7.096C50.1532 7.096 49.8085 6.964 49.5299 6.7C49.2659 6.436 49.1339 6.11333 49.1339 5.732C49.1339 5.336 49.2659 5.006 49.5299 4.742C49.8085 4.478 50.1532 4.346 50.5639 4.346C50.9745 4.346 51.3119 4.478 51.5759 4.742C51.8545 4.99133 51.9939 5.30667 51.9939 5.688C51.9939 6.084 51.8619 6.42133 51.5979 6.7C51.3339 6.964 50.9892 7.096 50.5639 7.096ZM61.8344 21.132C60.8664 21.132 59.9791 20.912 59.1724 20.472C58.3804 20.0173 57.7424 19.35 57.2584 18.47C56.7891 17.59 56.5544 16.49 56.5544 15.17C56.5544 13.85 56.7817 12.75 57.2364 11.87C57.7057 10.99 58.3364 10.33 59.1284 9.89C59.9351 9.45 60.8371 9.23 61.8344 9.23C62.9784 9.23 63.9904 9.47933 64.8704 9.978C65.7504 10.4767 66.4471 11.1733 66.9604 12.068C67.4737 12.948 67.7304 13.982 67.7304 15.17C67.7304 16.358 67.4737 17.3993 66.9604 18.294C66.4471 19.1887 65.7504 19.8853 64.8704 20.384C63.9904 20.8827 62.9784 21.132 61.8344 21.132ZM55.6524 25.268V9.34H57.6764V12.486L57.5444 15.192L57.7644 17.898V25.268H55.6524ZM61.6584 19.284C62.4064 19.284 63.0737 19.1153 63.6604 18.778C64.2617 18.4407 64.7311 17.964 65.0684 17.348C65.4204 16.7173 65.5964 15.9913 65.5964 15.17C65.5964 14.334 65.4204 13.6153 65.0684 13.014C64.7311 12.398 64.2617 11.9213 63.6604 11.584C63.0737 11.2467 62.4064 11.078 61.6584 11.078C60.9251 11.078 60.2577 11.2467 59.6564 11.584C59.0697 11.9213 58.6004 12.398 58.2484 13.014C57.9111 13.6153 57.7424 14.334 57.7424 15.17C57.7424 15.9913 57.9111 16.7173 58.2484 17.348C58.6004 17.964 59.0697 18.4407 59.6564 18.778C60.2577 19.1153 60.9251 19.284 61.6584 19.284ZM70.9565 21V5.6H72.7605L79.6685 17.238H78.7005L85.5205 5.6H87.3245L87.3465 21H85.2345L85.2125 8.922H85.7185L79.6465 19.13H78.6345L72.5185 8.922H73.0685V21H70.9565ZM98.8982 21V18.536L98.7882 18.074V13.872C98.7882 12.9773 98.5242 12.288 97.9962 11.804C97.4829 11.3053 96.7055 11.056 95.6642 11.056C94.9749 11.056 94.3002 11.1733 93.6402 11.408C92.9802 11.628 92.4229 11.9287 91.9682 12.31L91.0882 10.726C91.6895 10.242 92.4082 9.87533 93.2442 9.626C94.0949 9.362 94.9822 9.23 95.9062 9.23C97.5049 9.23 98.7369 9.61867 99.6022 10.396C100.468 11.1733 100.9 12.3613 100.9 13.96V21H98.8982ZM95.0702 21.132C94.2049 21.132 93.4422 20.9853 92.7822 20.692C92.1369 20.3987 91.6382 19.9953 91.2862 19.482C90.9342 18.954 90.7582 18.36 90.7582 17.7C90.7582 17.0693 90.9049 16.4973 91.1982 15.984C91.5062 15.4707 91.9975 15.06 92.6722 14.752C93.3615 14.444 94.2855 14.29 95.4442 14.29H99.1402V15.808H95.5322C94.4762 15.808 93.7649 15.984 93.3982 16.336C93.0315 16.688 92.8482 17.1133 92.8482 17.612C92.8482 18.184 93.0755 18.646 93.5302 18.998C93.9849 19.3353 94.6155 19.504 95.4222 19.504C96.2142 19.504 96.9035 19.328 97.4902 18.976C98.0915 18.624 98.5242 18.1107 98.7882 17.436L99.2062 18.888C98.9275 19.5773 98.4362 20.1273 97.7322 20.538C97.0282 20.934 96.1409 21.132 95.0702 21.132ZM108.153 21.132C107.185 21.132 106.261 21 105.381 20.736C104.515 20.472 103.833 20.1493 103.335 19.768L104.215 18.096C104.713 18.4333 105.329 18.7193 106.063 18.954C106.796 19.1887 107.544 19.306 108.307 19.306C109.289 19.306 109.993 19.1667 110.419 18.888C110.859 18.6093 111.079 18.2207 111.079 17.722C111.079 17.3553 110.947 17.0693 110.683 16.864C110.419 16.6587 110.067 16.5047 109.627 16.402C109.201 16.2993 108.725 16.2113 108.197 16.138C107.669 16.05 107.141 15.9473 106.613 15.83C106.085 15.698 105.601 15.522 105.161 15.302C104.721 15.0673 104.369 14.752 104.105 14.356C103.841 13.9453 103.709 13.4027 103.709 12.728C103.709 12.024 103.907 11.408 104.303 10.88C104.699 10.352 105.256 9.94867 105.975 9.67C106.708 9.37667 107.573 9.23 108.571 9.23C109.333 9.23 110.103 9.32533 110.881 9.516C111.673 9.692 112.318 9.94867 112.817 10.286L111.915 11.958C111.387 11.606 110.837 11.364 110.265 11.232C109.693 11.1 109.121 11.034 108.549 11.034C107.625 11.034 106.935 11.188 106.481 11.496C106.026 11.7893 105.799 12.1707 105.799 12.64C105.799 13.036 105.931 13.344 106.195 13.564C106.473 13.7693 106.825 13.9307 107.251 14.048C107.691 14.1653 108.175 14.268 108.703 14.356C109.231 14.4293 109.759 14.532 110.287 14.664C110.815 14.7813 111.291 14.95 111.717 15.17C112.157 15.39 112.509 15.698 112.773 16.094C113.051 16.49 113.191 17.018 113.191 17.678C113.191 18.382 112.985 18.9907 112.575 19.504C112.164 20.0173 111.585 20.4207 110.837 20.714C110.089 20.9927 109.194 21.132 108.153 21.132ZM119.834 21.132C118.661 21.132 117.751 20.8167 117.106 20.186C116.461 19.5553 116.138 18.6533 116.138 17.48V6.788H118.25V17.392C118.25 18.0227 118.404 18.5067 118.712 18.844C119.035 19.1813 119.489 19.35 120.076 19.35C120.736 19.35 121.286 19.1667 121.726 18.8L122.386 20.318C122.063 20.5967 121.675 20.802 121.22 20.934C120.78 21.066 120.318 21.132 119.834 21.132ZM114.158 11.078V9.34H121.594V11.078H114.158ZM129.745 21.132C128.498 21.132 127.398 20.8753 126.445 20.362C125.506 19.8487 124.773 19.1447 124.245 18.25C123.731 17.3553 123.475 16.3287 123.475 15.17C123.475 14.0113 123.724 12.9847 124.223 12.09C124.736 11.1953 125.433 10.4987 126.313 10C127.207 9.48667 128.212 9.23 129.327 9.23C130.456 9.23 131.453 9.47933 132.319 9.978C133.184 10.4767 133.859 11.1807 134.343 12.09C134.841 12.9847 135.091 14.0333 135.091 15.236C135.091 15.324 135.083 15.4267 135.069 15.544C135.069 15.6613 135.061 15.7713 135.047 15.874H125.125V14.356H133.947L133.089 14.884C133.103 14.136 132.949 13.4687 132.627 12.882C132.304 12.2953 131.857 11.8407 131.285 11.518C130.727 11.1807 130.075 11.012 129.327 11.012C128.593 11.012 127.941 11.1807 127.369 11.518C126.797 11.8407 126.349 12.3027 126.027 12.904C125.704 13.4907 125.543 14.1653 125.543 14.928V15.28C125.543 16.0573 125.719 16.754 126.071 17.37C126.437 17.9713 126.943 18.4407 127.589 18.778C128.234 19.1153 128.975 19.284 129.811 19.284C130.5 19.284 131.123 19.1667 131.681 18.932C132.253 18.6973 132.751 18.3453 133.177 17.876L134.343 19.24C133.815 19.856 133.155 20.3253 132.363 20.648C131.585 20.9707 130.713 21.132 129.745 21.132ZM138.023 21V9.34H140.047V12.508L139.849 11.716C140.172 10.9093 140.715 10.2933 141.477 9.868C142.24 9.44267 143.179 9.23 144.293 9.23V11.276C144.205 11.2613 144.117 11.254 144.029 11.254C143.956 11.254 143.883 11.254 143.809 11.254C142.68 11.254 141.785 11.5913 141.125 12.266C140.465 12.9407 140.135 13.916 140.135 15.192V21H138.023Z" fill="#5F51FF"/>
</svg>
